PathFileType	4	(X/Y/Z)	/home/nbianco/projects/addbio/data/HamnerRunning2013/Processed/subject03//results/MarkerData/run200.trc
DataRate	CameraRate	NumFrames	NumMarkers	Units	OrigDataRate	OrigDataStartFrame	OrigNumFrames
100	100	9	45	m	100	191	219
Frame#	Time	C7			CLAV			LACR			LASI			LCAL			LFAradius			LFAsuperior			LFAulna			LLEL			LMEL			LMT5			LPSH			LPSI			LTB1			LTB2			LTB3			LTH1			LTH2			LTH3			LTOE			LUA1			LUA2			LUA3			RACR			RASI			RCAL			RFAradius			RFAsuperior			RFAulna			RLEL			RLMAL			RMEL			RMMAL			RMT5			RPSI			RTB1			RTB2			RTB3			RTH1			RTH2			RTH3			RTOE			RUA1			RUA2			RUA3		
		X1	Y1	Z1	X2	Y2	Z2	X3	Y3	Z3	X4	Y4	Z4	X5	Y5	Z5	X6	Y6	Z6	X7	Y7	Z7	X8	Y8	Z8	X9	Y9	Z9	X10	Y10	Z10	X11	Y11	Z11	X12	Y12	Z12	X13	Y13	Z13	X14	Y14	Z14	X15	Y15	Z15	X16	Y16	Z16	X17	Y17	Z17	X18	Y18	Z18	X19	Y19	Z19	X20	Y20	Z20	X21	Y21	Z21	X22	Y22	Z22	X23	Y23	Z23	X24	Y24	Z24	X25	Y25	Z25	X26	Y26	Z26	X27	Y27	Z27	X28	Y28	Z28	X29	Y29	Z29	X30	Y30	Z30	X31	Y31	Z31	X32	Y32	Z32	X33	Y33	Z33	X34	Y34	Z34	X35	Y35	Z35	X36	Y36	Z36	X37	Y37	Z37	X38	Y38	Z38	X39	Y39	Z39	X40	Y40	Z40	X41	Y41	Z41	X42	Y42	Z42	X43	Y43	Z43	X44	Y44	Z44	X45	Y45	Z45

192	2.11	0.943394	1.55085	-0.508702	1.06729	1.46991	-0.487908	0.967632	1.52277	-0.666857	1.03599	1.04314	-0.591524	0.942468	0.0861255	-0.516437	1.0301	1.28099	-0.694235	0.89092	1.1736	-0.711701	1.05287	1.21565	-0.701455	0.799616	1.19757	-0.734207	0.803073	1.1923	-0.640757	1.11317	0.0568097	-0.59258	0.886085	1.48297	-0.662463	0.870221	1.06825	-0.514132	1.13217	0.402972	-0.570315	1.03827	0.3138	-0.608662	1.07713	0.218461	-0.553815	0.986408	0.822725	-0.642799	1.09138	0.739238	-0.629017	1.07029	0.630394	-0.617824	1.16995	0.0741244	-0.521712	0.869696	1.39672	-0.710708	0.815287	1.32693	-0.661513	0.808138	1.27807	-0.715473	1.00207	1.53558	-0.354012	1.04798	1.03785	-0.358692	0.60379	0.329435	-0.365951	1.1448	1.18023	-0.340577	1.012	1.17252	-0.18976	1.15052	1.12202	-0.30705	0.965248	1.23059	-0.156415	0.649773	0.286488	-0.311316	0.909681	1.20725	-0.221294	0.670929	0.274747	-0.392171	0.626815	0.161353	-0.288891	0.875514	1.06385	-0.425516	0.928663	0.391152	-0.372822	0.86279	0.401455	-0.323774	0.764055	0.314067	-0.344853	0.986829	0.768976	-0.315026	1.06033	0.704379	-0.348615	0.99813	0.600163	-0.347909	0.66927	0.114167	-0.364022	0.985734	1.39856	-0.242816	0.914169	1.34117	-0.228537	0.938879	1.29448	-0.180833
193	2.12	0.943479	1.54686	-0.509871	1.06668	1.46501	-0.487401	0.968129	1.5161	-0.668239	1.03316	1.03858	-0.592287	0.922434	0.086459	-0.51674	1.03996	1.26553	-0.696672	0.8993	1.16038	-0.715874	1.06204	1.19995	-0.701443	0.808761	1.1857	-0.740782	0.811057	1.1806	-0.64847	1.09327	0.0564225	-0.592978	0.887465	1.47413	-0.665375	0.866991	1.0642	-0.513654	1.12522	0.398554	-0.569521	1.02769	0.313361	-0.608392	1.06236	0.216258	-0.553608	0.983526	0.818131	-0.64283	1.08881	0.735522	-0.62994	1.068	0.626128	-0.617622	1.15033	0.0729428	-0.521894	0.874202	1.38567	-0.714896	0.819127	1.3145	-0.667748	0.81508	1.26543	-0.721599	0.999873	1.53014	-0.353302	1.04487	1.03309	-0.3584	0.615718	0.330446	-0.366415	1.14197	1.15963	-0.33119	1.00176	1.16294	-0.187108	1.14448	1.1033	-0.294909	0.955386	1.22366	-0.157446	0.662743	0.289008	-0.310911	0.902222	1.20063	-0.224151	0.683463	0.275886	-0.391734	0.641509	0.164593	-0.285767	0.871794	1.05953	-0.425341	0.942405	0.390244	-0.373936	0.876541	0.401616	-0.324159	0.777134	0.314846	-0.344838	0.989536	0.765918	-0.316545	1.06676	0.703719	-0.349441	1.00808	0.597935	-0.3488	0.683345	0.115831	-0.360123	0.980046	1.39143	-0.242885	0.907113	1.33389	-0.231463	0.930005	1.28728	-0.182842
194	2.13	0.94316	1.54333	-0.510177	1.06584	1.461	-0.486525	0.968777	1.51101	-0.668825	1.03071	1.03469	-0.592508	0.902421	0.0867267	-0.516563	1.0517	1.25064	-0.698692	0.90923	1.14835	-0.720062	1.07243	1.18486	-0.700944	0.819671	1.1754	-0.747261	0.820327	1.17004	-0.656018	1.07315	0.0562272	-0.59331	0.888621	1.46801	-0.66703	0.863794	1.06103	-0.513807	1.11638	0.393437	-0.569363	1.01533	0.311711	-0.607418	1.0467	0.213502	-0.553053	0.979866	0.813499	-0.642737	1.08407	0.730369	-0.630685	1.06253	0.620878	-0.616616	1.13055	0.0717946	-0.522091	0.879092	1.37681	-0.717951	0.823639	1.30333	-0.673508	0.822862	1.2544	-0.727594	0.997719	1.52585	-0.352631	1.04165	1.0298	-0.357892	0.628403	0.329583	-0.367452	1.1383	1.1395	-0.321859	0.991315	1.1544	-0.185252	1.13729	1.08562	-0.282312	0.945736	1.21782	-0.159562	0.676712	0.290222	-0.31087	0.895186	1.19489	-0.228027	0.697545	0.275895	-0.391601	0.658366	0.166545	-0.282843	0.869063	1.0562	-0.426214	0.956794	0.389969	-0.374851	0.890615	0.402221	-0.324299	0.791237	0.31509	-0.344836	0.992069	0.763708	-0.317576	1.07307	0.704348	-0.350071	1.01807	0.597106	-0.348991	0.700742	0.116716	-0.356084	0.974331	1.38582	-0.243311	0.900044	1.32791	-0.23521	0.921259	1.2812	-0.185782
195	2.14	0.942339	1.54017	-0.509885	1.06481	1.45777	-0.485328	0.969735	1.5075	-0.668864	1.02847	1.03138	-0.592282	0.882475	0.0870664	-0.516265	1.065	1.23748	-0.699854	0.920735	1.1383	-0.724191	1.08376	1.17146	-0.700122	0.832405	1.16718	-0.753446	0.830599	1.16086	-0.66297	1.053	0.0562544	-0.593473	0.889778	1.46467	-0.667629	0.860939	1.05867	-0.514794	1.10621	0.388257	-0.569292	1.00208	0.309654	-0.60632	1.03058	0.210759	-0.552322	0.975622	0.809493	-0.642616	1.07792	0.724428	-0.631042	1.05502	0.615533	-0.61515	1.11069	0.0709248	-0.522151	0.883927	1.37036	-0.719384	0.829062	1.29368	-0.678545	0.831886	1.24539	-0.733368	0.99559	1.52261	-0.351967	1.0385	1.02774	-0.357435	0.641856	0.326804	-0.368988	1.13321	1.12035	-0.313216	0.980837	1.14726	-0.183998	1.12894	1.06983	-0.269706	0.936465	1.21332	-0.162454	0.69153	0.289974	-0.311152	0.888626	1.19039	-0.232565	0.713021	0.274636	-0.391679	0.676959	0.167185	-0.280041	0.867847	1.05365	-0.428481	0.971522	0.390348	-0.375349	0.904821	0.403087	-0.324244	0.806188	0.314753	-0.344772	0.994818	0.76228	-0.318076	1.07917	0.705917	-0.350193	1.02806	0.597125	-0.348632	0.720971	0.116712	-0.351871	0.968723	1.38174	-0.244008	0.893325	1.32358	-0.239677	0.913014	1.27666	-0.189498
196	2.15	0.941252	1.53778	-0.509454	1.06362	1.45538	-0.483956	0.971096	1.50551	-0.6687	1.02627	1.0287	-0.591949	0.862582	0.0875467	-0.516173	1.07912	1.22715	-0.699806	0.933475	1.13073	-0.727865	1.09561	1.16078	-0.699035	0.846537	1.16122	-0.758946	0.841474	1.15338	-0.668974	1.03297	0.0563266	-0.593501	0.891212	1.46351	-0.667937	0.858994	1.05709	-0.516466	1.09514	0.383625	-0.568896	0.988586	0.307978	-0.605525	1.0142	0.208542	-0.551679	0.970844	0.806412	-0.642417	1.07136	0.718839	-0.630908	1.04692	0.611002	-0.613834	1.09088	0.0703522	-0.522097	0.888368	1.36593	-0.719367	0.835387	1.2857	-0.682835	0.842315	1.23848	-0.73871	0.993474	1.52024	-0.351243	1.03553	1.02654	-0.357207	0.656175	0.322105	-0.370903	1.12637	1.10281	-0.30562	0.970327	1.14169	-0.183088	1.1197	1.0568	-0.257575	0.92739	1.2102	-0.165597	0.707167	0.288196	-0.311691	0.882238	1.18735	-0.237225	0.729688	0.271986	-0.391869	0.696997	0.166502	-0.277337	0.86747	1.05197	-0.431198	0.986286	0.391454	-0.375205	0.919064	0.403989	-0.324064	0.821931	0.313874	-0.344585	0.997913	0.761799	-0.318119	1.08506	0.708319	-0.349772	1.03794	0.597917	-0.347889	0.74336	0.115712	-0.347566	0.963265	1.37885	-0.244789	0.88714	1.32084	-0.244493	0.905241	1.27368	-0.193582
197	2.16	0.940228	1.53652	-0.509138	1.06233	1.45393	-0.482571	0.972873	1.50497	-0.668497	1.02398	1.02681	-0.591842	0.8427	0.0881873	-0.516349	1.093	1.22045	-0.698383	0.946843	1.12576	-0.730604	1.10751	1.15363	-0.697585	0.861233	1.1574	-0.763334	0.852544	1.14799	-0.673822	1.01302	0.0563328	-0.593499	0.893033	1.46371	-0.668615	0.857864	1.05626	-0.518222	1.08329	0.379816	-0.568136	0.974936	0.306943	-0.605031	0.997588	0.206996	-0.551218	0.965615	0.804227	-0.642084	1.06496	0.714454	-0.630407	1.03901	0.607673	-0.613096	1.07115	0.0699544	-0.522069	0.89245	1.36306	-0.718761	0.842331	1.2796	-0.6865	0.853751	1.23358	-0.743321	0.991417	1.51856	-0.350435	1.03276	1.02602	-0.357279	0.671383	0.315491	-0.373035	1.11791	1.08799	-0.298989	0.959652	1.1378	-0.18235	1.10999	1.04735	-0.246326	0.91803	1.20837	-0.168437	0.723601	0.28493	-0.312388	0.875532	1.18576	-0.2415	0.747363	0.267947	-0.392142	0.718437	0.164524	-0.27479	0.866275	1.05139	-0.432703	1.00081	0.393341	-0.374242	0.933234	0.404792	-0.323807	0.838404	0.31249	-0.344281	1.00119	0.762441	-0.317753	1.09073	0.711642	-0.349008	1.04748	0.599787	-0.346883	0.76746	0.113732	-0.343336	0.957878	1.37682	-0.245481	0.881307	1.31943	-0.249119	0.897502	1.27208	-0.197516
198	2.17	0.939436	1.5364	-0.508874	1.06104	1.45338	-0.481256	0.974949	1.50575	-0.668185	1.02161	1.02578	-0.592053	0.822768	0.0890102	-0.516624	1.10562	1.21777	-0.695562	0.960195	1.12329	-0.732141	1.11913	1.15054	-0.695566	0.875586	1.15547	-0.766402	0.863447	1.14491	-0.677448	0.993046	0.0563269	-0.593548	0.895147	1.46467	-0.669767	0.856535	1.05612	-0.519219	1.07054	0.376778	-0.567313	0.960766	0.306396	-0.604627	0.980637	0.20597	-0.550887	0.960191	0.802906	-0.641666	1.05861	0.711464	-0.629761	1.03109	0.605407	-0.612925	1.05142	0.0696168	-0.522126	0.896604	1.36162	-0.718659	0.849538	1.27572	-0.689622	0.865324	1.23067	-0.746934	0.989482	1.51747	-0.34956	1.03022	1.02617	-0.357603	0.687431	0.306979	-0.375219	1.10846	1.0773	-0.292868	0.948676	1.13571	-0.181715	1.10018	1.04184	-0.236272	0.907936	1.20776	-0.170616	0.740801	0.280237	-0.31315	0.868136	1.18545	-0.245073	0.765977	0.262619	-0.392514	0.741328	0.161318	-0.272507	0.863119	1.05186	-0.43212	1.01492	0.395999	-0.372501	0.947157	0.405498	-0.323484	0.855444	0.310568	-0.343977	1.00433	0.764226	-0.31701	1.09601	0.716018	-0.348102	1.05638	0.603028	-0.345687	0.793122	0.110923	-0.339407	0.952384	1.37557	-0.245978	0.875366	1.3191	-0.253078	0.889266	1.27162	-0.200891
199	2.18	0.938852	1.53717	-0.508496	1.05987	1.4536	-0.480001	0.977131	1.5077	-0.667635	1.0193	1.02564	-0.592413	0.80275	0.0900052	-0.516783	1.11627	1.21922	-0.691385	0.973054	1.12325	-0.732485	1.13018	1.15182	-0.692744	0.888971	1.15515	-0.768272	0.873865	1.14402	-0.679907	0.97301	0.0564315	-0.593692	0.897421	1.46612	-0.671097	0.854121	1.05662	-0.51902	1.05674	0.374354	-0.566787	0.94564	0.306156	-0.604203	0.963239	0.205294	-0.55064	0.954889	0.802511	-0.641261	1.0519	0.709589	-0.6291	1.02247	0.603887	-0.612997	1.03157	0.0692899	-0.522223	0.901407	1.3617	-0.719734	0.856759	1.27421	-0.692189	0.876159	1.22967	-0.749457	0.987637	1.51705	-0.348634	1.02793	1.02709	-0.357997	0.704303	0.296645	-0.377332	1.09887	1.07182	-0.28676	0.937407	1.13563	-0.18112	1.09031	1.04001	-0.227679	0.897029	1.20842	-0.172069	0.758778	0.274133	-0.313944	0.860006	1.18629	-0.247863	0.785558	0.256134	-0.392932	0.765598	0.156976	-0.270548	0.858571	1.05312	-0.430198	1.02856	0.399314	-0.370361	0.960655	0.406167	-0.32308	0.872836	0.308035	-0.343807	1.00701	0.767052	-0.315968	1.10059	0.72149	-0.347086	1.06437	0.607612	-0.344347	0.820299	0.107518	-0.336	0.946579	1.37527	-0.246224	0.868906	1.31985	-0.25616	0.880285	1.27229	-0.20354
200	2.19	0.9384	1.53865	-0.50796	1.05889	1.4545	-0.478747	0.979292	1.51063	-0.666821	1.01727	1.02636	-0.592671	0.782678	0.0910549	-0.516721	1.1247	1.2247	-0.685972	0.985168	1.12564	-0.731747	1.1404	1.1575	-0.688896	0.901219	1.15623	-0.769273	0.883564	1.14486	-0.681354	0.952944	0.0567053	-0.593934	0.899833	1.46813	-0.672347	0.850964	1.0578	-0.518033	1.04188	0.372478	-0.566683	0.929443	0.306216	-0.603794	0.945409	0.204965	-0.550502	0.949856	0.803065	-0.640909	1.04461	0.708469	-0.62842	1.01275	0.602951	-0.613	1.01155	0.0689975	-0.522306	0.907222	1.36335	-0.721861	0.863822	1.2748	-0.694238	0.885827	1.23039	-0.751043	0.98572	1.51747	-0.347684	1.02584	1.02887	-0.358201	0.722076	0.284655	-0.379314	1.08972	1.0716	-0.280539	0.92601	1.13762	-0.180461	1.08019	1.04102	-0.220778	0.885662	1.21053	-0.17293	0.777571	0.266626	-0.31478	0.851364	1.18834	-0.249923	0.80609	0.248663	-0.393259	0.791006	0.151581	-0.268894	0.854306	1.05495	-0.428509	1.04179	0.403077	-0.368381	0.973644	0.40681	-0.322553	0.890436	0.304887	-0.343776	1.00906	0.770805	-0.314708	1.10424	0.727923	-0.345859	1.07126	0.613209	-0.3429	0.848865	0.10377	-0.333211	0.940342	1.37623	-0.2462	0.861875	1.32185	-0.258451	0.870732	1.27427	-0.205493
